<?xml version="1.0" encoding="iso-8859-1"?>
<!-- Generator: Adobe Illustrator 19.0.0, SVG Export Plug-In . SVG Version: 6.00 Build 0)  -->
<svg version="1.1" id="Capa_1" xmlns="http://www.w3.org/2000/svg" xmlns:xlink="http://www.w3.org/1999/xlink" x="0px" y="0px"
	 viewBox="0 0 512 512" style="enable-background:new 0 0 512 512;" xml:space="preserve">
<path style="fill:#34ABE0;" d="M512,256c0,8.056-0.376,16.029-1.108,23.897c-3.532,38.191-15.454,73.947-33.907,105.409
	C432.546,461.103,350.218,512,256,512S79.454,461.103,35.015,385.306c-13.406-22.873-23.374-48.003-29.163-74.689
	C2.017,293.021,0,274.745,0,256c0-8.547,0.418-16.99,1.243-25.318c3.688-37.658,15.548-72.913,33.771-103.988
	c7.419-12.664,15.903-24.628,25.318-35.777C107.29,35.318,177.518,0,256,0s148.71,35.318,195.668,90.917
	c9.415,11.149,17.899,23.113,25.318,35.777c13.166,22.455,23.019,47.104,28.85,73.258c2.058,9.153,3.605,18.495,4.629,27.993
	c0.846,7.607,1.337,15.318,1.484,23.113C511.99,252.698,512,254.349,512,256z"/>
<g>
	<path style="fill:#78CAEF;" d="M504.633,226.597h-36.321c-3.678,0-7.011-1.494-9.415-3.897c-2.414-2.414-3.908-5.747-3.908-9.425
		c0-7.356,5.966-13.322,13.322-13.322h37.522c2.058,9.153,3.605,18.495,4.629,27.993
		C508.698,227.077,506.723,226.597,504.633,226.597z"/>
	<path style="fill:#78CAEF;" d="M512,256c0,8.056-0.376,16.029-1.108,23.897h-9.968c-3.678,0-7.011-1.494-9.425-3.908
		c-2.403-2.403-3.897-5.736-3.897-9.415c0-7.367,5.966-13.322,13.322-13.322h3.709c2.706,0,5.214-0.805,7.314-2.194
		C511.99,252.698,512,254.349,512,256z"/>
	<path style="fill:#78CAEF;" d="M102.943,297.294c0,7.356-5.966,13.322-13.322,13.322H5.851C2.017,293.021,0,274.745,0,256
		c0-8.547,0.418-16.99,1.243-25.318H68.89c3.688,0,7.011,1.494,9.425,3.908c2.414,2.403,3.908,5.736,3.908,9.415
		c0,7.356-5.966,13.322-13.333,13.322H25.966c-7.367,0-13.322,5.966-13.322,13.322s5.956,13.322,13.322,13.322h63.655
		c3.678,0,7.011,1.494,9.415,3.908C101.449,290.283,102.943,293.616,102.943,297.294z"/>
</g>
<path style="fill:#F9EED7;" d="M476.985,90.917v294.39c-16.76,28.588-38.902,53.624-65.045,73.728
	C368.765,492.251,314.692,512,256,512s-112.765-19.749-155.941-52.966c-26.143-20.104-48.285-45.14-65.045-73.728V90.917H476.985z"
	/>
<path style="fill:#FF525D;" d="M472.596,37.634H39.398c-4.517,0-8.603,2.681-10.401,6.824L6.874,95.446
	c-3.249,7.487,2.239,15.85,10.401,15.85h477.444c8.162,0,13.65-8.363,10.401-15.85l-22.124-50.987
	C481.198,40.315,477.112,37.634,472.596,37.634z"/>
<path style="fill:#494B5B;" d="M411.944,247.579v211.455c-5.057,3.897-10.261,7.596-15.611,11.107
	c-8.349,5.486-17.042,10.491-26.039,14.984c-9.885,4.953-20.146,9.279-30.71,12.925c-10.742,3.699-21.807,6.719-33.134,8.976
	c-16.311,3.26-33.186,4.974-50.448,4.974s-34.137-1.714-50.448-4.974c-17.418-3.479-34.2-8.725-50.145-15.538
	c-4.702-2.017-9.331-4.169-13.887-6.457c-8.934-4.462-17.575-9.446-25.872-14.9c-5.339-3.511-10.543-7.21-15.59-11.097V247.579
	c0-7.06,5.723-12.783,12.783-12.783H399.16C406.221,234.796,411.944,240.519,411.944,247.579z"/>
<rect x="35.015" y="111.292" style="fill:#E8DBC4;" width="441.971" height="28.211"/>
<path style="fill:#FF6E7C;" d="M461.312,75.243H351.603c-6.059,0-10.97-4.912-10.97-10.97l0,0c0-6.059,4.912-10.97,10.97-10.97
	h109.709c6.059,0,10.97,4.912,10.97,10.97l0,0C472.282,70.331,467.371,75.243,461.312,75.243z"/>
<path style="fill:#279FC9;" d="M130.621,217.071H72.245c-8.845,0-16.015-7.17-16.015-16.015v-58.375
	c0-8.845,7.17-16.015,16.015-16.015h58.375c8.845,0,16.015,7.17,16.015,16.015v58.375
	C146.636,209.9,139.466,217.071,130.621,217.071z"/>
<path style="fill:#F9EED7;" d="M82.985,141.431c0-2.055,1.859-3.913,4.793-3.913h19.661c12.423,0,22.203,5.967,22.203,22.008v0.587
	c0,16.041-10.075,22.203-22.986,22.203H95.701v22.693c0,2.641-3.227,4.01-6.357,4.01c-3.229,0-6.359-1.369-6.359-4.01V141.431z
	 M95.701,148.669v23.67h10.956c6.357,0,10.269-3.62,10.269-11.248v-1.174c0-7.629-3.912-11.248-10.269-11.248H95.701V148.669z"/>
<path style="fill:#E8DBC4;" d="M399.217,421.061c0,3.897-1.578,7.419-4.138,9.979c-2.55,2.55-6.081,4.127-9.968,4.127H100.063
	v-28.202h285.048C392.895,406.966,399.217,413.277,399.217,421.061z"/>
<g>
	<polygon style="fill:#FF525D;" points="170.394,406.962 142.182,406.962 126.509,435.172 154.72,435.172 	"/>
	<polygon style="fill:#FF525D;" points="237.785,406.962 209.575,406.962 193.902,435.172 222.112,435.172 	"/>
	<polygon style="fill:#FF525D;" points="305.178,406.962 276.967,406.962 261.293,435.172 289.505,435.172 	"/>
	<polygon style="fill:#FF525D;" points="372.571,406.962 344.36,406.962 328.686,435.172 356.897,435.172 	"/>
	<path style="fill:#FF525D;" d="M176.119,154.535c0-1.274,1.153-2.425,2.971-2.425h12.185c7.699,0,13.76,3.698,13.76,13.639v0.364
		c0,9.941-6.244,13.76-14.245,13.76h-6.79v14.063c0,1.636-2,2.485-3.94,2.485c-2.001,0-3.94-0.848-3.94-2.485L176.119,154.535
		L176.119,154.535z M183.999,159.021v14.669h6.79c3.94,0,6.364-2.242,6.364-6.971v-0.727c0-4.728-2.424-6.971-6.364-6.971h-6.79
		V159.021z"/>
	<path style="fill:#FF525D;" d="M207.457,193.148c0-0.121,0.061-0.364,0.12-0.606l11.7-38.129c0.545-1.818,2.789-2.668,5.031-2.668
		c2.303,0,4.546,0.85,5.092,2.668l11.699,38.129c0.062,0.242,0.121,0.424,0.121,0.606c0,1.879-2.849,3.274-4.971,3.274
		c-1.333,0-2.365-0.424-2.668-1.576l-2.304-8.062h-13.881l-2.303,8.062c-0.303,1.151-1.333,1.576-2.668,1.576
		C210.307,196.422,207.457,195.089,207.457,193.148z M229.583,180.6l-5.274-18.61l-5.275,18.61H229.583z"/>
	<path style="fill:#FF525D;" d="M248.433,154.535c0-1.274,1.03-2.425,2.546-2.425h12.003c7.941,0,14.366,3.031,14.366,12.669
		c0,6.971-3.395,10.73-7.941,12.124l7.941,14.731c0.242,0.303,0.303,0.727,0.303,0.97c0,2.001-2.606,4.122-4.91,4.122
		c-1.091,0-2.121-0.667-2.727-1.879l-8.608-16.731h-5.093v15.822c0,1.636-1.939,2.485-3.94,2.485c-1.939,0-3.94-0.848-3.94-2.485
		L248.433,154.535L248.433,154.535z M256.313,159.021v12.912h6.669c3.94,0,6.486-1.636,6.486-6.425s-2.546-6.487-6.486-6.487
		L256.313,159.021L256.313,159.021z"/>
	<path style="fill:#FF525D;" d="M286.015,154.535c0-1.698,1.939-2.425,3.94-2.425c1.939,0,3.94,0.727,3.94,2.425v16.548
		l13.094-17.822c0.606-0.848,1.333-1.151,2.183-1.151c2,0,4.546,2.062,4.546,4.062c0,0.424-0.061,0.97-0.485,1.515l-10.851,13.578
		l13.215,20.126c0.303,0.424,0.423,0.909,0.423,1.394c0,1.939-2.424,3.94-4.727,3.94c-1.03,0-2.062-0.424-2.727-1.515
		l-11.397-17.276l-3.274,4.122v11.882c0,1.636-2,2.485-3.94,2.485c-2.001,0-3.94-0.848-3.94-2.485V154.535z"/>
	<path style="fill:#FF525D;" d="M322.505,154.535c0-1.698,1.939-2.425,3.94-2.425c1.939,0,3.94,0.727,3.94,2.425v39.402
		c0,1.636-2,2.485-3.94,2.485c-2.001,0-3.94-0.848-3.94-2.485V154.535z"/>
	<path style="fill:#FF525D;" d="M361.604,193.937l-13.034-24.369v24.369c0,1.636-2,2.485-3.94,2.485c-2.001,0-3.94-0.848-3.94-2.485
		v-39.341c0-1.697,1.939-2.485,3.94-2.485c2.849,0,4.001,0.606,5.88,4.183l11.7,22.611v-24.368c0-1.698,1.939-2.425,3.94-2.425
		c1.939,0,3.94,0.727,3.94,2.425v39.402c0,1.636-2,2.485-3.94,2.485C364.269,196.422,362.633,195.816,361.604,193.937z"/>
	<path style="fill:#FF525D;" d="M394.153,159.021c-4.063,0-6.366,2.242-6.366,6.971v16.913c0,4.728,2.303,6.971,6.304,6.971
		c3.94,0,6.366-2.242,6.366-6.971v-3.577h-4.91c-1.577,0-2.424-1.515-2.424-3.092c0-1.515,0.848-3.091,2.424-3.091h10.305
		c1.577,0,2.486,1.212,2.486,2.546v7.214c0,10.123-6.244,13.881-14.246,13.881c-8.001,0-14.184-3.758-14.184-13.881v-16.913
		c0-10.123,6.244-13.881,13.943-13.881c8.365,0,14.487,4.365,14.487,11.639c0,3.031-1.333,3.758-3.94,3.758
		c-2.121,0-3.88-0.606-3.94-2.485C400.275,162.172,399.306,159.021,394.153,159.021z"/>
</g>
<g>
</g>
<g>
</g>
<g>
</g>
<g>
</g>
<g>
</g>
<g>
</g>
<g>
</g>
<g>
</g>
<g>
</g>
<g>
</g>
<g>
</g>
<g>
</g>
<g>
</g>
<g>
</g>
<g>
</g>
</svg>
