<?xml version="1.0" encoding="iso-8859-1"?>
<!-- Generator: Adobe Illustrator 19.0.0, SVG Export Plug-In . SVG Version: 6.00 Build 0)  -->
<svg version="1.1" id="Capa_1" xmlns="http://www.w3.org/2000/svg" xmlns:xlink="http://www.w3.org/1999/xlink" x="0px" y="0px"
	 viewBox="0 0 512 512" style="enable-background:new 0 0 512 512;" xml:space="preserve">
<path style="fill:#00C3FF;" d="M19.491,404.888c-6.887,0-12.49-5.603-12.49-12.49v-286.39c0-6.887,5.603-12.49,12.49-12.49h473.019
	c6.887,0,12.49,5.603,12.49,12.49v286.39c0,6.887-5.603,12.49-12.49,12.49H19.491z"/>
<path style="fill:#05ACD3;" d="M74.156,392.398v-286.39c0-6.887,5.603-12.49,12.49-12.49H19.491c-6.887,0-12.49,5.603-12.49,12.49
	v286.39c0,6.887,5.603,12.49,12.49,12.49h67.155C79.758,404.888,74.156,399.284,74.156,392.398z"/>
<path style="fill:#FFDC64;" d="M35.003,129.428v239.55c0,4.367,3.54,7.908,7.908,7.908H469.09c4.367,0,7.908-3.54,7.908-7.908
	v-239.55c0-4.367-3.54-7.908-7.908-7.908H42.91C38.543,121.52,35.003,125.061,35.003,129.428z"/>
<path style="fill:#EFC03C;" d="M42.91,121.52c-4.367,0-7.908,3.54-7.908,7.908v239.55c0,4.367,3.54,7.908,7.908,7.908h31.246V121.52
	H42.91z"/>
<path style="fill:#FF507D;" d="M255.991,464.123c-40.093,0-72.711-32.618-72.711-72.711s32.618-72.711,72.711-72.711
	s72.711,32.618,72.711,72.711S296.084,464.123,255.991,464.123z"/>
<path style="fill:#EF1846;" d="M233.577,383.861c0-24.064,11.756-45.427,29.822-58.667c2.594-1.901,1.42-6.026-1.786-6.276
	c-3.693-0.287-7.464-0.295-11.292,0.003c-36.604,2.851-65.628,33.046-66.99,69.736c-1.535,41.342,31.653,75.465,72.66,75.465
	c9.371,0,18.329-1.788,26.56-5.033c3.014-1.188,2.957-5.476-0.103-6.542C254.029,442.658,233.577,415.607,233.577,383.861z"/>
<path style="fill:#FFFFFF;" d="M255.8,408.176l-36.49,10.655c-2.096,0.612-3.871-1.64-2.787-3.535l37.36-65.285
	c0.932-1.629,3.281-1.629,4.213,0l37.338,65.246c1.089,1.902-0.702,4.159-2.802,3.531l-35.456-10.607
	C256.728,408.047,256.251,408.045,255.8,408.176z"/>
<path style="fill:#FF507D;" d="M126.291,189.656c-12.975-11.899-55.307-52.912-55.307-81.062c0-33.479,27.236-60.715,60.715-60.715
	c33.478,0,60.714,27.236,60.714,60.715c0,28.15-42.332,69.164-55.306,81.062l-5.407,4.959L126.291,189.656z"/>
<path style="fill:#EF1846;" d="M158.673,80.796c-6.271-6.728-14.367-10.534-22.711-11.494c-5.276-0.607-8.77-5.757-7.302-10.862
	l1.15-3.997c0.957-3.325-1.787-6.554-5.224-6.15c-30.138,3.532-53.601,29.227-53.601,60.3c0,28.15,42.332,69.164,55.307,81.063
	l5.407,4.959l-7.865-41.875c-0.984-5.24,3.014-10.056,8.346-10.125c10.666-0.139,21.248-4.87,28.487-14.07
	C171.789,114.412,170.933,93.951,158.673,80.796z"/>
<path style="fill:#FFFFFF;" d="M131.699,130.085c-13.369,0-24.246-10.877-24.246-24.246s10.877-24.246,24.246-24.246
	s24.246,10.877,24.246,24.246S145.069,130.085,131.699,130.085z"/>
<path d="M492.509,86.517H195.7c-9.177-26.529-34.391-45.641-64.001-45.641S76.874,59.988,67.697,86.517H19.491
	C8.744,86.517,0,95.261,0,106.008v286.39c0,10.747,8.744,19.491,19.491,19.491h159.467c9.063,34.062,40.157,59.235,77.033,59.235
	s67.97-25.174,77.033-59.235h159.486c10.747,0,19.491-8.744,19.491-19.491v-286.39C512,95.261,503.256,86.517,492.509,86.517z
	 M131.699,55.879c29.066,0,52.713,23.648,52.713,52.714c0,22.231-34.438,58.405-52.713,75.166
	c-18.275-16.761-52.714-52.935-52.714-75.166C78.985,79.526,102.632,55.879,131.699,55.879z M176.488,396.887H19.491
	c-2.475,0-4.489-2.014-4.489-4.489v-286.39c0-2.475,2.014-4.489,4.489-4.489h44.864c-0.243,2.326-0.371,4.685-0.371,7.074
	c0,1.908,0.163,3.885,0.481,5.927H35.503c-4.142,0-7.501,3.358-7.501,7.501v254.365c0,4.142,3.358,7.501,7.501,7.501h141.141
	c-0.233,2.479-0.366,4.987-0.366,7.526C176.279,393.254,176.364,395.076,176.488,396.887z M43.003,368.885V129.521h26.124
	c5.133,11.523,14.094,24.595,26.827,39.099c15.221,17.338,30.212,30.323,30.843,30.867c1.404,1.211,3.145,1.818,4.886,1.821v0.001
	l251.898,0.46c16.667,0,30.486,13.551,30.805,30.207c0.155,8.122-2.973,15.87-8.809,21.818c-5.983,6.098-14.276,9.597-22.754,9.597
	H275.227c-14.743,0-26.738,11.995-26.738,26.738v21.934c-32.807,3.078-59.886,26.119-68.949,56.822L43.003,368.885L43.003,368.885z
	 M255.991,456.122c-35.682,0-64.71-29.028-64.71-64.71s29.028-64.71,64.71-64.71s64.71,29.028,64.71,64.71
	S291.671,456.122,255.991,456.122z M496.999,392.398c0,2.479-2.01,4.489-4.489,4.489H335.493c0.124-1.811,0.209-3.633,0.209-5.475
	c0-2.539-0.132-5.047-0.366-7.526h141.161c4.142,0,7.501-3.358,7.501-7.501v-34.475c0-4.159-3.43-7.5-7.589-7.39
	c-0.072,0.002-0.144,0.004-0.216,0.006c-4.005,0.104-7.197,3.383-7.197,7.39v26.968H332.44
	c-9.063-30.702-36.143-53.743-68.949-56.822V290.13c0-6.483,5.254-11.737,11.737-11.737h107.599c12.48,0,24.676-5.136,33.462-14.092
	c8.68-8.848,13.332-20.429,13.099-32.611c-0.474-24.77-21.022-44.922-45.791-44.922l-232.924-0.425
	c5.008-4.941,10.869-11.003,16.769-17.723c12.733-14.504,21.694-27.576,26.827-39.099h274.727v169.244
	c0,4.007,3.192,7.287,7.198,7.39c0.072,0.002,0.144,0.004,0.216,0.006c4.157,0.109,7.587-3.23,7.587-7.39V122.02
	c0-4.142-3.358-7.501-7.501-7.501H198.933c0.319-2.042,0.481-4.018,0.481-5.927c0-2.389-0.128-4.748-0.371-7.074h293.466
	c2.479,0,4.489,2.01,4.489,4.489V392.398z"/>
<path d="M162.945,105.839c0-17.229-14.017-31.247-31.247-31.247s-31.246,14.017-31.246,31.247s14.017,31.247,31.246,31.247
	C148.928,137.085,162.945,123.068,162.945,105.839z M115.453,105.839c0-8.958,7.288-16.245,16.245-16.245
	s16.245,7.288,16.245,16.245s-7.288,16.245-16.245,16.245C122.741,122.084,115.453,114.797,115.453,105.839z"/>
<path d="M255.991,339.836c-2.69,0-5.173,1.44-6.51,3.775l-41.405,72.354c-1.52,2.655-1.274,5.966,0.619,8.369
	c1.894,2.402,5.056,3.415,7.993,2.556l39.777-11.615l38.782,11.601c0.709,0.212,1.433,0.315,2.149,0.315
	c2.25,0,4.429-1.015,5.875-2.838c1.907-2.403,2.159-5.725,0.635-8.388l-41.405-72.354
	C261.164,341.277,258.681,339.836,255.991,339.836z M258.64,400.268c-1.386-0.414-2.862-0.419-4.251-0.014l-24.059,7.025
	l25.661-44.842l25.573,44.688L258.64,400.268z"/>
<g>
</g>
<g>
</g>
<g>
</g>
<g>
</g>
<g>
</g>
<g>
</g>
<g>
</g>
<g>
</g>
<g>
</g>
<g>
</g>
<g>
</g>
<g>
</g>
<g>
</g>
<g>
</g>
<g>
</g>
</svg>
