<?xml version="1.0" encoding="iso-8859-1"?>
<!-- Generator: Adobe Illustrator 19.0.0, SVG Export Plug-In . SVG Version: 6.00 Build 0)  -->
<svg version="1.1" id="Capa_1" xmlns="http://www.w3.org/2000/svg" xmlns:xlink="http://www.w3.org/1999/xlink" x="0px" y="0px"
	 viewBox="0 0 512 512" style="enable-background:new 0 0 512 512;" xml:space="preserve">
<path style="fill:#303C42;" d="M506.229,214.521l-64.301-33.188l64.301-33.188c3.521-1.823,5.75-5.438,5.771-9.406
	c0.021-3.969-2.146-7.615-5.646-9.49l-160-85.333c-3.104-1.646-6.792-1.667-9.917-0.063L256,85.37l-80.438-41.516
	c-3.125-1.604-6.854-1.583-9.917,0.063l-160,85.333c-3.5,1.875-5.667,5.521-5.646,9.49s2.25,7.583,5.771,9.406l64.301,33.188
	L5.771,214.521c-3.521,1.823-5.75,5.438-5.771,9.406s2.146,7.615,5.646,9.49l79.688,42.5v97.417c0,3.938,2.167,7.563,5.646,9.417
	l160,85.333c1.563,0.833,3.292,1.25,5.021,1.25s3.458-0.417,5.021-1.25l160-85.333c3.479-1.854,5.646-5.479,5.646-9.417v-97.417
	l79.688-42.5c3.5-1.875,5.667-5.521,5.646-9.49C511.979,219.959,509.75,216.344,506.229,214.521z"/>
<polygon style="fill:#A1887F;" points="341.25,65.375 478.375,138.511 418.668,169.328 279.257,97.374 "/>
<polygon style="fill:#8D6E63;" points="395.409,181.334 256,253.289 116.591,181.334 256,109.378 "/>
<g>
	<polygon style="fill:#A1887F;" points="33.625,138.511 170.75,65.375 232.744,97.374 93.332,169.328 	"/>
	<polygon style="fill:#A1887F;" points="93.332,193.339 232.744,265.293 170.75,297.292 33.625,224.157 	"/>
</g>
<path style="fill:#7C5E54;" d="M106.667,287.295l58.979,31.456c1.563,0.833,3.292,1.25,5.021,1.25c1.688,0,3.354-0.396,4.896-1.188
	l69.771-36.01v158.082l-138.667-73.947V287.295z"/>
<path style="fill:#6D4C41;" d="M405.333,366.938l-138.667,73.947V282.802l69.771,36.01c1.542,0.792,3.208,1.188,4.896,1.188
	c1.729,0,3.458-0.417,5.021-1.25l58.979-31.456V366.938z"/>
<polygon style="fill:#A1887F;" points="341.25,297.292 279.257,265.293 418.668,193.339 478.375,224.157 "/>
<polygon style="opacity:0.1;enable-background:new    ;" points="256,109.378 256,253.289 116.591,181.334 "/>
<linearGradient id="SVGID_1_" gradientUnits="userSpaceOnUse" x1="-32.6317" y1="634.8" x2="-27.4085" y2="629.5789" gradientTransform="matrix(21.3333 0 0 -21.3333 996.3303 13791.6709)">
	<stop  offset="0" style="stop-color:#000000;stop-opacity:0.1"/>
	<stop  offset="1" style="stop-color:#000000;stop-opacity:0"/>
</linearGradient>
<path style="fill:url(#SVGID_1_);" d="M405.333,366.938v-79.643l-58.979,31.456c-1.563,0.833-3.292,1.25-5.021,1.25
	c-1.688,0-3.354-0.396-4.896-1.188l-69.771-36.01l103.102,103.102L405.333,366.938z"/>
<linearGradient id="SVGID_2_" gradientUnits="userSpaceOnUse" x1="-40.0253" y1="634.6953" x2="-33.5254" y2="628.1953" gradientTransform="matrix(21.3333 0 0 -21.3333 996.3303 13791.6709)">
	<stop  offset="0" style="stop-color:#000000;stop-opacity:0.1"/>
	<stop  offset="1" style="stop-color:#000000;stop-opacity:0"/>
</linearGradient>
<path style="fill:url(#SVGID_2_);" d="M245.333,282.802l-69.771,36.01c-1.542,0.792-3.208,1.188-4.896,1.188
	c-1.729,0-3.458-0.417-5.021-1.25l-58.979-31.456L245.333,425.96V282.802z"/>
<linearGradient id="SVGID_3_" gradientUnits="userSpaceOnUse" x1="-46.3517" y1="640.8485" x2="-25.0209" y2="630.9026" gradientTransform="matrix(21.3333 0 0 -21.3333 996.3303 13791.6709)">
	<stop  offset="0" style="stop-color:#FFFFFF;stop-opacity:0.2"/>
	<stop  offset="1" style="stop-color:#FFFFFF;stop-opacity:0"/>
</linearGradient>
<path style="fill:url(#SVGID_3_);" d="M506.229,214.521l-64.301-33.188l64.301-33.188c3.521-1.823,5.75-5.438,5.771-9.406
	c0.021-3.969-2.146-7.615-5.646-9.49l-160-85.333c-3.104-1.646-6.792-1.667-9.917-0.063L256,85.37l-80.438-41.516
	c-3.125-1.604-6.854-1.583-9.917,0.063l-160,85.333c-3.5,1.875-5.667,5.521-5.646,9.49s2.25,7.583,5.771,9.406l64.301,33.188
	L5.771,214.521c-3.521,1.823-5.75,5.438-5.771,9.406s2.146,7.615,5.646,9.49l79.688,42.5v97.417c0,3.938,2.167,7.563,5.646,9.417
	l160,85.333c1.563,0.833,3.292,1.25,5.021,1.25s3.458-0.417,5.021-1.25l160-85.333c3.479-1.854,5.646-5.479,5.646-9.417v-97.417
	l79.688-42.5c3.5-1.875,5.667-5.521,5.646-9.49C511.979,219.959,509.75,216.344,506.229,214.521z"/>
<g>
</g>
<g>
</g>
<g>
</g>
<g>
</g>
<g>
</g>
<g>
</g>
<g>
</g>
<g>
</g>
<g>
</g>
<g>
</g>
<g>
</g>
<g>
</g>
<g>
</g>
<g>
</g>
<g>
</g>
</svg>
